<svg width="29" height="29" viewBox="0 0 29 29" fill="none" xmlns="http://www.w3.org/2000/svg">
  <g id="GRUPO DA CHAVE">
    <path id="Vector"
      d="M18.7694 2.38074C17.5238 2.38045 16.2954 2.67195 15.1827 3.23188C14.07 3.7918 13.1039 4.60458 12.3619 5.60509C11.6199 6.60559 11.1226 7.766 10.9098 8.99332C10.6969 10.2206 10.7746 11.4807 11.1364 12.6727L1.92938 21.8797V27.1976H7.24729L16.4544 17.9906C17.5515 18.3236 18.7076 18.4162 19.8438 18.262C20.98 18.1079 22.0696 17.7106 23.0384 17.0972C24.0071 16.4838 24.8323 15.6688 25.4576 14.7077C26.0829 13.7466 26.4936 12.662 26.6618 11.5278C26.83 10.3936 26.7517 9.23649 26.4323 8.13528C26.1129 7.03407 25.5598 6.01467 24.8107 5.14655C24.0617 4.27842 23.1343 3.58198 22.0918 3.10469C21.0492 2.6274 19.916 2.38047 18.7694 2.38074ZM18.7694 16.5618C18.1592 16.5615 17.5524 16.4713 16.9684 16.2942L15.9518 15.9857L15.2011 16.7364L12.3817 19.5558L11.1595 18.3345L9.90624 19.5877L11.1285 20.8099L9.72277 22.2156L8.50054 20.9934L7.24729 22.2467L8.46952 23.4689L6.51342 25.425H3.70202V22.6136L12.3897 13.9259L13.1413 13.1752L12.8329 12.1586C12.454 10.9098 12.4786 9.57328 12.9032 8.33924C13.3277 7.10521 14.1306 6.03647 15.1976 5.28505C16.2646 4.53362 17.5413 4.13779 18.8463 4.15384C20.1512 4.1699 21.4178 4.59702 22.466 5.37447C23.5142 6.15191 24.2905 7.24008 24.6845 8.48419C25.0786 9.72829 25.0703 11.065 24.6609 12.3041C24.2515 13.5432 23.4617 14.6217 22.404 15.3861C21.3463 16.1505 20.0744 16.5619 18.7694 16.5618Z"
      fill="#030000" />
    <path id="Vector_2"
      d="M19.6558 11.2439C20.6348 11.2439 21.4284 10.4503 21.4284 9.47129C21.4284 8.49229 20.6348 7.69865 19.6558 7.69865C18.6768 7.69865 17.8831 8.49229 17.8831 9.47129C17.8831 10.4503 18.6768 11.2439 19.6558 11.2439Z"
      fill="#030000" />
  </g>
</svg>